<svg viewBox="0 0 24 24" xmlns="http://www.w3.org/2000/svg"><path d="M21.3 17.4a.75.75 0 0 1-.75-.75 8.55 8.55 0 0 0-17.1 0 .75.75 0 0 1-1.5 0 10.05 10.05 0 0 1 20.1 0 .76.76 0 0 1-.75.75z" fill="#30d99e" class="fill-000000"></path><path d="M21.3 17.4a.75.75 0 0 1-.75-.75 8.55 8.55 0 0 0-17.1 0 .75.75 0 0 1-1.5 0 10.05 10.05 0 0 1 20.1 0 .76.76 0 0 1-.75.75z" fill="#30d99e" class="fill-000000"></path><path d="M18.16 17.4a.76.76 0 0 1-.75-.75 5.41 5.41 0 0 0-10.82 0 .75.75 0 0 1-1.5 0 6.91 6.91 0 0 1 13.82 0 .76.76 0 0 1-.75.75z" fill="#30d99e" class="fill-000000"></path><path d="M14.93 17.4a.75.75 0 0 1-.75-.75 2.18 2.18 0 1 0-4.35 0 .75.75 0 0 1-1.5 0 3.68 3.68 0 1 1 7.35 0 .76.76 0 0 1-.75.75z" fill="#30d99e" class="fill-000000"></path><path fill="none" d="M0 0h24v24H0z"></path></svg>